<?xml version="1.0" standalone="no"?>
<!DOCTYPE svg PUBLIC "-//W3C//DTD SVG 20010904//EN"
 "http://www.w3.org/TR/2001/REC-SVG-20010904/DTD/svg10.dtd">
<svg version="1.0" xmlns="http://www.w3.org/2000/svg"
 width="200.000000pt" height="200.000000pt" viewBox="0 0 200.000000 200.000000"
 preserveAspectRatio="xMidYMid meet">

<g transform="translate(0.000000,200.000000) scale(0.100000,-0.100000)"
fill="#000000" stroke="none">
<path d="M430 1780 l0 -80 75 0 75 0 0 80 0 80 -75 0 -75 0 0 -80z"/>
<path d="M1080 1849 c-69 -14 -164 -65 -215 -116 -198 -201 -141 -535 113
-660 73 -37 80 -38 181 -38 95 0 112 3 165 28 32 15 60 27 62 27 12 0 -43 -88
-77 -125 -83 -90 -188 -135 -314 -135 -194 0 -363 137 -404 328 -6 29 -11 141
-11 247 l0 195 -75 0 -75 0 0 -224 c0 -212 1 -230 25 -304 62 -196 226 -344
430 -387 88 -18 142 -18 230 0 213 45 387 210 440 420 12 47 15 129 15 407 l0
348 -75 0 -75 0 0 -44 0 -44 -67 34 c-98 50 -176 62 -273 43z m180 -170 c201
-91 212 -367 19 -465 -130 -65 -272 -23 -347 104 -23 40 -27 58 -27 122 0 88
17 130 77 189 69 70 188 91 278 50z"/>
<path d="M70 450 c0 -15 7 -20 25 -20 18 0 25 5 25 20 0 15 -7 20 -25 20 -18
0 -25 -5 -25 -20z"/>
<path d="M280 423 c0 -37 -3 -44 -12 -35 -19 19 -76 14 -98 -8 -31 -31 -28
-113 6 -147 20 -20 31 -24 57 -19 18 4 47 6 65 6 l32 -1 0 126 0 125 -25 0
c-23 0 -25 -4 -25 -47z m-12 -65 c13 -13 16 -66 6 -92 -9 -23 -61 -21 -74 3
-31 58 25 132 68 89z"/>
<path d="M760 345 c0 -118 1 -125 20 -125 19 0 20 7 20 125 0 118 -1 125 -20
125 -19 0 -20 -7 -20 -125z"/>
<path d="M70 310 c0 -89 0 -90 25 -90 25 0 25 1 25 90 0 89 0 90 -25 90 -25 0
-25 -1 -25 -90z"/>
<path d="M388 380 c-51 -39 -39 -139 19 -161 38 -14 89 -3 108 24 14 20 14 22
-1 25 -9 2 -21 -1 -27 -7 -15 -15 -60 -14 -75 1 -28 28 -13 38 53 38 62 0 65
1 65 24 0 13 -9 35 -21 50 -26 33 -84 36 -121 6z m88 -27 c17 -17 16 -18 -25
-21 -50 -4 -59 1 -41 23 17 20 44 19 66 -2z"/>
<path d="M582 384 c-29 -20 -28 -34 3 -34 14 0 25 5 25 10 0 16 57 12 64 -5 6
-18 -22 -35 -58 -35 -29 0 -66 -31 -66 -55 0 -8 9 -24 21 -36 16 -16 28 -19
52 -14 18 3 47 6 65 6 l32 -1 0 80 c0 68 -3 81 -19 90 -29 15 -93 12 -119 -6z
m92 -106 c-11 -38 -59 -53 -70 -23 -9 23 15 45 48 45 26 0 29 -3 22 -22z"/>
<path d="M958 389 c-41 -24 -40 -137 2 -159 27 -15 62 -12 88 6 21 14 22 14
22 -8 0 -39 -27 -68 -64 -68 -19 0 -39 7 -46 15 -16 19 -31 20 -24 1 8 -22 59
-39 94 -31 45 10 60 52 60 165 0 53 -4 90 -10 90 -5 0 -10 -7 -10 -17 0 -15
-1 -15 -18 0 -21 19 -68 22 -94 6z m92 -26 c27 -34 22 -89 -11 -115 -27 -23
-41 -23 -70 1 -18 14 -24 29 -24 59 0 76 63 108 105 55z"/>
<path d="M1120 310 c0 -53 4 -90 10 -90 6 0 10 22 10 50 0 61 16 99 47 106 13
4 23 10 23 15 0 16 -23 10 -47 -13 l-23 -21 0 21 c0 12 -4 22 -10 22 -6 0 -10
-37 -10 -90z"/>
<path d="M1241 381 c-43 -43 -35 -125 14 -157 32 -21 89 -12 110 19 22 31 19
99 -6 131 -26 33 -88 37 -118 7z m89 -1 c38 -21 45 -94 12 -132 -15 -18 -58
-24 -78 -10 -39 26 -44 93 -9 127 26 27 46 31 75 15z"/>
<path d="M1410 336 c0 -36 4 -76 10 -90 12 -34 55 -44 92 -23 15 9 28 12 28 7
0 -6 5 -10 10 -10 6 0 10 37 10 90 0 53 -4 90 -10 90 -6 0 -10 -28 -10 -63 0
-74 -18 -107 -59 -107 -42 0 -51 17 -51 97 0 42 -4 73 -10 73 -6 0 -10 -28
-10 -64z"/>
<path d="M1603 275 c0 -72 2 -109 4 -82 4 51 8 54 37 32 52 -39 116 4 116 78
0 82 -66 124 -127 82 -20 -14 -22 -13 -26 2 -3 10 -4 -40 -4 -112z m107 105
c23 -12 40 -61 33 -92 -14 -56 -72 -77 -108 -38 -27 29 -24 99 5 122 25 20 43
22 70 8z"/>
<path d="M1806 384 c-19 -19 -21 -50 -4 -61 7 -4 33 -15 58 -23 70 -23 66 -69
-6 -70 -22 0 -36 7 -47 23 -8 12 -18 19 -22 15 -4 -4 4 -18 18 -32 31 -31 75
-34 108 -7 20 16 22 23 14 47 -8 22 -20 30 -54 39 -52 12 -71 35 -52 59 19 22
58 20 73 -4 15 -24 28 -26 28 -5 0 33 -86 48 -114 19z"/>
</g>
</svg>
